<svg width="34" height="32" viewBox="0 0 34 32" fill="none" xmlns="http://www.w3.org/2000/svg">
<path fill-rule="evenodd" clip-rule="evenodd" d="M16.6742 0.5C17.1557 0.5 17.5825 0.808811 17.7314 1.26494L21.0945 11.5714H32.2367C32.7239 11.5714 33.1543 11.8874 33.2985 12.3508C33.4427 12.8143 33.2671 13.3173 32.8653 13.5917L23.8323 19.7609L27.315 30.0388C27.4697 30.4952 27.3103 30.9989 26.9208 31.2844C26.5314 31.57 26.0012 31.572 25.6095 31.2894L16.6742 24.8405L7.73884 31.2894C7.34721 31.572 6.81703 31.57 6.42755 31.2844C6.03807 30.9989 5.87868 30.4952 6.03334 30.0388L9.51612 19.7609L0.483045 13.5917C0.0812666 13.3173 -0.0943088 12.8143 0.0499079 12.3508C0.194125 11.8874 0.624526 11.5714 1.11169 11.5714H12.2539L15.617 1.26494C15.7659 0.808811 16.1926 0.5 16.6742 0.5ZM16.6742 5.18913L14.1186 13.0208C13.9698 13.4769 13.543 13.7857 13.0615 13.7857H4.69839L11.4669 18.4083C11.8771 18.6885 12.0506 19.206 11.8915 19.6755L9.25291 27.4621L16.0219 22.5767C16.4111 22.2959 16.9373 22.2959 17.3265 22.5767L24.0955 27.4621L21.4569 19.6755C21.2978 19.206 21.4712 18.6885 21.8815 18.4083L28.65 13.7857H20.2869C19.8054 13.7857 19.3786 13.4769 19.2297 13.0208L16.6742 5.18913Z" fill="white"/>
</svg>
