<svg width="54" height="34" viewBox="0 0 54 34" fill="none" xmlns="http://www.w3.org/2000/svg">
<path fill-rule="evenodd" clip-rule="evenodd" d="M33.7948 19.2307C33.352 19.6583 33.1508 20.2746 33.2545 20.879L33.9234 24.7463C34.1318 25.9501 33.1674 26.9278 32.0734 26.9278C31.7852 26.9278 31.4876 26.8597 31.1993 26.7096L27.6996 24.8836C27.4258 24.7414 27.1261 24.6703 26.8254 24.6703C26.5258 24.6703 26.2261 24.7414 25.9523 24.8836L22.4526 26.7096C22.1643 26.8597 21.8667 26.9278 21.5785 26.9278C20.4845 26.9278 19.5201 25.9501 19.7286 24.7463L20.3974 20.879C20.5011 20.2746 20.2999 19.6583 19.8571 19.2307L17.0252 16.4922C15.9115 15.4147 16.5265 13.5374 18.0653 13.3152L21.9787 12.7513C22.5905 12.6634 23.1194 12.2822 23.3921 11.7321L25.1425 8.21437C25.4867 7.52209 26.1566 7.17644 26.8254 7.17644C27.4953 7.17644 28.1652 7.52209 28.5094 8.21437L30.2598 11.7321C30.5325 12.2822 31.0614 12.6634 31.6732 12.7513L35.5866 13.3152C37.1254 13.5374 37.7404 15.4147 36.6267 16.4922L33.7948 19.2307Z" fill="white"/>
<path d="M49.3855 11.5403V7.90555C49.3855 3.88825 46.1274 0.627365 42.109 0.627365V4.26755C44.1168 4.26755 45.7475 5.89717 45.7475 7.90555V11.5403C45.7475 13.7266 46.7315 15.6656 48.258 17C46.7315 18.3338 45.7475 20.2702 45.7475 22.4575V26.0955C45.7475 28.105 44.1168 29.7341 42.1073 29.7341V33.3726C46.1235 33.3726 49.3855 30.1161 49.3855 26.0955V22.4575C49.3855 20.4481 51.0162 18.819 53.0241 18.819V15.1788C51.0129 15.1788 49.3855 13.5492 49.3855 11.5403Z" fill="white"/>
<path d="M7.90861 11.5425V7.90391C7.90861 5.89444 9.53933 4.26537 11.5488 4.26537V0.627365C7.5304 0.627365 4.27007 3.88388 4.27007 7.90391L4.26843 11.5425C4.26843 13.5519 2.63935 15.1805 0.629883 15.1805V18.819L0.63152 18.8206C2.64099 18.8206 4.27007 20.4497 4.27007 22.4592V26.0939C4.27007 30.1107 7.52658 33.3726 11.5466 33.3726V29.7325C9.53714 29.7325 7.90861 28.1034 7.90861 26.0939V22.4592C7.90861 20.2723 6.92407 18.3338 5.39814 17C6.92407 15.6656 7.90861 13.7282 7.90861 11.5425Z" fill="white"/>
</svg>
